<?xml version="1.0" encoding="utf-8"?>
<!-- Generator: Adobe Illustrator 23.0.1, SVG Export Plug-In . SVG Version: 6.00 Build 0)  -->
<svg version="1.1" id="Layer_1" xmlns="http://www.w3.org/2000/svg" xmlns:xlink="http://www.w3.org/1999/xlink" x="0px" y="0px"
	 viewBox="0 0 576 405" style="enable-background:new 0 0 576 405;" xml:space="preserve">
<style type="text/css">
	.st0{fill:#FFFFFF;}
</style>
<path class="st0" d="M564,63.3c-6.6-24.9-26.1-44.6-50.9-51.3C468.1,0,288,0,288,0S107.9,0,63,12.1C38.2,18.7,18.7,38.4,12,63.3
	C0,108.5,0,202.9,0,202.9s0,94.3,12,139.5c6.6,24.9,26.1,43.8,50.9,50.4C107.9,405,288,405,288,405s180.1,0,225-12.1
	c24.8-6.7,44.3-25.5,50.9-50.4c12-45.2,12-139.5,12-139.5S576,108.5,564,63.3z M229.1,288.5V117.2l150.5,85.6L229.1,288.5
	L229.1,288.5z"/>
</svg>
